<svg width="4000" height="4000" viewBox="0 0 4000 4000" fill="none" xmlns="http://www.w3.org/2000/svg">
<g clip-path="url(#clip0_104_17)">
<rect width="4000" height="4000" rx="200" fill="white"/>
<rect width="4000" height="4000" fill="#7CFF8A"/>
<path d="M1186.45 1304.07L1475.75 1466.16L2007.53 576.284L2383.78 1206.81L1949 1449.95L2862.04 1686.6L3107.86 801.588L2673.08 1044.72L2296.82 412.573C2204.85 256.967 1999.16 203.477 1840.3 294.247C1795.15 318.561 1756.69 354.221 1728.26 396.364M1659.7 3263.73V2939.55H599.498L974.08 2307.4L1408.86 2550.54L1164.72 1665.53L250 1902.18L684.783 2145.31L308.528 2777.46C216.555 2933.07 271.739 3130.82 430.602 3219.97C475.753 3245.9 525.92 3258.87 579.431 3263.73M3174.75 1885.97L2883.78 2048.06L3415.55 2939.55H2663.04V2453.28L1994.15 3101.64L2663.04 3750V3263.73H3415.55C3601.17 3263.73 3750 3119.47 3750 2939.55C3750 2889.3 3736.62 2839.06 3713.21 2795.29L3174.75 1885.97Z" fill="#1A6400"/>
<path d="M1600 2400V2311.41C1600 2311.41 1800 2222.82 2000 2222.82C2200 2222.82 2400 2311.41 2400 2311.41V2400H1600ZM1972 1828.6C1924 1655.85 1680 1695.72 1680 1695.72C1680 1695.72 1688 2041.22 1916 1988.06C1900 1859.61 1840 1824.17 1840 1824.17C1952 1824.17 1960 1974.77 1960 1974.77V2178.53C1972 2178.53 1988 2178.53 2000 2178.53C2012 2178.53 2028 2178.53 2040 2178.53V1992.49C2040 1992.49 2040 1819.74 2160 1775.45C2160 1775.45 2080 1908.33 2080 1996.92C2360 2027.93 2360 1602.7 2360 1602.7C2360 1602.7 2004 1558.41 1972 1828.6Z" fill="#1A6400"/>
</g>
<defs>
<clipPath id="clip0_104_17">
<rect width="4000" height="4000" rx="200" fill="white"/>
</clipPath>
</defs>
</svg>
